<svg xmlns="http://www.w3.org/2000/svg" viewBox="0 0 15.25 13.83"><title>Artboard 50</title><path d="M7.41,13.14C7.13,13,.57,9.59.57,5.18.57,2.5,2.22.47,4.41.47A4.26,4.26,0,0,1,7.64,2.15,4.26,4.26,0,0,1,10.87.47c2.19,0,3.84,2,3.84,4.71,0,4.4-6.56,7.81-6.84,8l-.23.12Z" style="fill:#577c8a"/><path d="M10.87,1c1.78,0,3.34,1.64,3.34,4.21,0,4.15-6.57,7.51-6.57,7.51S1.07,9.33,1.07,5.18C1.07,2.61,2.63,1,4.41,1A4,4,0,0,1,7.64,3a4,4,0,0,1,3.23-2m0-1A4.56,4.56,0,0,0,7.64,1.41,4.56,4.56,0,0,0,4.41,0a4,4,0,0,0-3.11,1.5A5.69,5.69,0,0,0,.07,5.18c0,4.71,6.82,8.25,7.11,8.4l.46.23.46-.23c.29-.15,7.11-3.7,7.11-8.4,0-3-1.87-5.21-4.34-5.21Z" style="fill:#577c8a"/></svg>